<mxfile host="Electron" agent="Mozilla/5.0 (Windows NT 10.0; Win64; x64) AppleWebKit/537.36 (KHTML, like Gecko) draw.io/27.0.9 Chrome/134.0.6998.205 Electron/35.4.0 Safari/537.36" version="27.0.9">
  <diagram name="Página-1" id="KBA8oNWjk2p-g_KnEva4">
    <mxGraphModel dx="1042" dy="660" grid="1" gridSize="10" guides="1" tooltips="1" connect="1" arrows="1" fold="1" page="1" pageScale="1" pageWidth="1169" pageHeight="1654" math="0" shadow="0">
      <root>
        <mxCell id="0" />
        <mxCell id="1" parent="0" />
        <mxCell id="MT8bY2ywJeFq0EqXuJLi-3" style="edgeStyle=orthogonalEdgeStyle;rounded=0;orthogonalLoop=1;jettySize=auto;html=1;exitX=1;exitY=0.5;exitDx=0;exitDy=0;entryX=0;entryY=0.5;entryDx=0;entryDy=0;" parent="1" source="MT8bY2ywJeFq0EqXuJLi-1" target="MT8bY2ywJeFq0EqXuJLi-2" edge="1">
          <mxGeometry relative="1" as="geometry" />
        </mxCell>
        <mxCell id="MT8bY2ywJeFq0EqXuJLi-1" value="Adicionar cartão" style="ellipse;whiteSpace=wrap;html=1;aspect=fixed;" parent="1" vertex="1">
          <mxGeometry x="160" y="180" width="80" height="80" as="geometry" />
        </mxCell>
        <mxCell id="MT8bY2ywJeFq0EqXuJLi-10" value="" style="edgeStyle=orthogonalEdgeStyle;rounded=0;orthogonalLoop=1;jettySize=auto;html=1;" parent="1" source="MT8bY2ywJeFq0EqXuJLi-2" target="MT8bY2ywJeFq0EqXuJLi-9" edge="1">
          <mxGeometry relative="1" as="geometry" />
        </mxCell>
        <mxCell id="MT8bY2ywJeFq0EqXuJLi-2" value="&quot;Pressione ESC se quiser voltar.&lt;div&gt;&lt;br&gt;&lt;/div&gt;&lt;div&gt;Insira o nome do cartão (máx. 80 caracteres alfanuméricos):&amp;nbsp;&lt;span style=&quot;background-color: transparent; color: light-dark(rgb(0, 0, 0), rgb(255, 255, 255));&quot;&gt;&quot;&lt;/span&gt;&lt;/div&gt;" style="shape=document;whiteSpace=wrap;html=1;boundedLbl=1;" parent="1" vertex="1">
          <mxGeometry x="270" y="155" width="140" height="130" as="geometry" />
        </mxCell>
        <mxCell id="MT8bY2ywJeFq0EqXuJLi-6" value="" style="edgeStyle=orthogonalEdgeStyle;rounded=0;orthogonalLoop=1;jettySize=auto;html=1;" parent="1" source="MT8bY2ywJeFq0EqXuJLi-4" target="MT8bY2ywJeFq0EqXuJLi-5" edge="1">
          <mxGeometry relative="1" as="geometry" />
        </mxCell>
        <mxCell id="MT8bY2ywJeFq0EqXuJLi-15" style="edgeStyle=orthogonalEdgeStyle;rounded=0;orthogonalLoop=1;jettySize=auto;html=1;exitX=1;exitY=0.5;exitDx=0;exitDy=0;entryX=0.5;entryY=0;entryDx=0;entryDy=0;" parent="1" source="MT8bY2ywJeFq0EqXuJLi-4" target="MT8bY2ywJeFq0EqXuJLi-14" edge="1">
          <mxGeometry relative="1" as="geometry" />
        </mxCell>
        <mxCell id="MT8bY2ywJeFq0EqXuJLi-4" value="Cartão possui quantidade de caracteres menor ou igual a 80?" style="rhombus;whiteSpace=wrap;html=1;" parent="1" vertex="1">
          <mxGeometry x="290" y="410" width="80" height="80" as="geometry" />
        </mxCell>
        <mxCell id="MT8bY2ywJeFq0EqXuJLi-8" style="edgeStyle=orthogonalEdgeStyle;rounded=0;orthogonalLoop=1;jettySize=auto;html=1;exitX=0;exitY=0.5;exitDx=0;exitDy=0;entryX=1;entryY=0.5;entryDx=0;entryDy=0;" parent="1" source="MT8bY2ywJeFq0EqXuJLi-5" target="MT8bY2ywJeFq0EqXuJLi-7" edge="1">
          <mxGeometry relative="1" as="geometry" />
        </mxCell>
        <mxCell id="MT8bY2ywJeFq0EqXuJLi-5" value="&quot;Você ultrapassou o número permitido de caracteres. Escreva novamente, por favor&quot;" style="shape=document;whiteSpace=wrap;html=1;boundedLbl=1;" parent="1" vertex="1">
          <mxGeometry x="140" y="410" width="120" height="80" as="geometry" />
        </mxCell>
        <mxCell id="MT8bY2ywJeFq0EqXuJLi-7" value="Adicionar cartão" style="ellipse;whiteSpace=wrap;html=1;aspect=fixed;" parent="1" vertex="1">
          <mxGeometry x="30" y="410" width="80" height="80" as="geometry" />
        </mxCell>
        <mxCell id="MT8bY2ywJeFq0EqXuJLi-11" value="" style="edgeStyle=orthogonalEdgeStyle;rounded=0;orthogonalLoop=1;jettySize=auto;html=1;" parent="1" source="MT8bY2ywJeFq0EqXuJLi-9" target="MT8bY2ywJeFq0EqXuJLi-4" edge="1">
          <mxGeometry relative="1" as="geometry" />
        </mxCell>
        <mxCell id="MT8bY2ywJeFq0EqXuJLi-9" value="" style="verticalLabelPosition=bottom;verticalAlign=top;html=1;shape=card;whiteSpace=wrap;size=20;arcSize=12;" parent="1" vertex="1">
          <mxGeometry x="290" y="320" width="100" height="60" as="geometry" />
        </mxCell>
        <mxCell id="MT8bY2ywJeFq0EqXuJLi-12" value="Entrada do usuário" style="text;html=1;align=center;verticalAlign=middle;resizable=0;points=[];autosize=1;strokeColor=none;fillColor=none;" parent="1" vertex="1">
          <mxGeometry x="280" y="335" width="120" height="30" as="geometry" />
        </mxCell>
        <mxCell id="MT8bY2ywJeFq0EqXuJLi-13" value="F" style="text;html=1;align=center;verticalAlign=middle;resizable=0;points=[];autosize=1;strokeColor=none;fillColor=none;" parent="1" vertex="1">
          <mxGeometry x="260" y="420" width="30" height="30" as="geometry" />
        </mxCell>
        <mxCell id="MT8bY2ywJeFq0EqXuJLi-17" value="" style="edgeStyle=orthogonalEdgeStyle;rounded=0;orthogonalLoop=1;jettySize=auto;html=1;" parent="1" source="MT8bY2ywJeFq0EqXuJLi-14" target="MT8bY2ywJeFq0EqXuJLi-16" edge="1">
          <mxGeometry relative="1" as="geometry" />
        </mxCell>
        <mxCell id="MT8bY2ywJeFq0EqXuJLi-21" style="edgeStyle=orthogonalEdgeStyle;rounded=0;orthogonalLoop=1;jettySize=auto;html=1;exitX=1;exitY=0.5;exitDx=0;exitDy=0;entryX=0.5;entryY=0;entryDx=0;entryDy=0;" parent="1" source="MT8bY2ywJeFq0EqXuJLi-14" target="MT8bY2ywJeFq0EqXuJLi-20" edge="1">
          <mxGeometry relative="1" as="geometry" />
        </mxCell>
        <mxCell id="MT8bY2ywJeFq0EqXuJLi-14" value="A entrada é alfanumérica?" style="rhombus;whiteSpace=wrap;html=1;" parent="1" vertex="1">
          <mxGeometry x="370" y="570" width="80" height="80" as="geometry" />
        </mxCell>
        <mxCell id="MT8bY2ywJeFq0EqXuJLi-19" value="" style="edgeStyle=orthogonalEdgeStyle;rounded=0;orthogonalLoop=1;jettySize=auto;html=1;" parent="1" source="MT8bY2ywJeFq0EqXuJLi-16" target="MT8bY2ywJeFq0EqXuJLi-18" edge="1">
          <mxGeometry relative="1" as="geometry" />
        </mxCell>
        <mxCell id="MT8bY2ywJeFq0EqXuJLi-16" value="&quot;Nome inválido.&lt;div&gt;São permitidas apenas entradas alfanuméricas:&amp;nbsp;&lt;div&gt;&lt;span style=&quot;background-color: transparent; color: light-dark(rgb(0, 0, 0), rgb(255, 255, 255));&quot;&gt;Letras maiúsculas: &lt;/span&gt;&lt;code style=&quot;background-color: transparent; color: light-dark(rgb(0, 0, 0), rgb(255, 255, 255));&quot; data-end=&quot;231&quot; data-start=&quot;228&quot;&gt;A&lt;/code&gt;&lt;span style=&quot;background-color: transparent; color: light-dark(rgb(0, 0, 0), rgb(255, 255, 255));&quot;&gt; a&amp;nbsp;&lt;/span&gt;&lt;/div&gt;&lt;div&gt;&lt;span style=&quot;background-color: transparent; color: light-dark(rgb(0, 0, 0), rgb(255, 255, 255));&quot;&gt;Letras minúsculas: &lt;/span&gt;&lt;code style=&quot;background-color: transparent; color: light-dark(rgb(0, 0, 0), rgb(255, 255, 255));&quot; data-end=&quot;262&quot; data-start=&quot;259&quot;&gt;a&lt;/code&gt;&lt;span style=&quot;background-color: transparent; color: light-dark(rgb(0, 0, 0), rgb(255, 255, 255));&quot;&gt; a&amp;nbsp;&lt;/span&gt;&lt;/div&gt;&lt;div&gt;&lt;span style=&quot;background-color: transparent; color: light-dark(rgb(0, 0, 0), rgb(255, 255, 255));&quot;&gt;Dígitos numéricos: &lt;/span&gt;&lt;code style=&quot;background-color: transparent; color: light-dark(rgb(0, 0, 0), rgb(255, 255, 255));&quot; data-end=&quot;293&quot; data-start=&quot;290&quot;&gt;0&lt;/code&gt;&lt;span style=&quot;background-color: transparent; color: light-dark(rgb(0, 0, 0), rgb(255, 255, 255));&quot;&gt; a &lt;/span&gt;&lt;code style=&quot;background-color: transparent; color: light-dark(rgb(0, 0, 0), rgb(255, 255, 255));&quot; data-end=&quot;299&quot; data-start=&quot;296&quot;&gt;9&lt;/code&gt;&lt;/div&gt;&lt;div&gt;&lt;br&gt;&lt;/div&gt;&lt;div&gt;Digite Novamente, por favor.&quot;&lt;/div&gt;&lt;/div&gt;" style="shape=document;whiteSpace=wrap;html=1;boundedLbl=1;" parent="1" vertex="1">
          <mxGeometry x="130" y="520" width="190" height="180" as="geometry" />
        </mxCell>
        <mxCell id="MT8bY2ywJeFq0EqXuJLi-18" value="Adicionar cartão" style="ellipse;whiteSpace=wrap;html=1;aspect=fixed;" parent="1" vertex="1">
          <mxGeometry x="10" y="570" width="80" height="80" as="geometry" />
        </mxCell>
        <mxCell id="MT8bY2ywJeFq0EqXuJLi-24" value="" style="edgeStyle=orthogonalEdgeStyle;rounded=0;orthogonalLoop=1;jettySize=auto;html=1;" parent="1" source="MT8bY2ywJeFq0EqXuJLi-20" target="MT8bY2ywJeFq0EqXuJLi-23" edge="1">
          <mxGeometry relative="1" as="geometry" />
        </mxCell>
        <mxCell id="MT8bY2ywJeFq0EqXuJLi-27" value="" style="edgeStyle=orthogonalEdgeStyle;rounded=0;orthogonalLoop=1;jettySize=auto;html=1;" parent="1" source="MT8bY2ywJeFq0EqXuJLi-20" target="MT8bY2ywJeFq0EqXuJLi-26" edge="1">
          <mxGeometry relative="1" as="geometry" />
        </mxCell>
        <mxCell id="MT8bY2ywJeFq0EqXuJLi-20" value="&quot;A entrada foi diferente da tecla ESC?&quot;" style="rhombus;whiteSpace=wrap;html=1;" parent="1" vertex="1">
          <mxGeometry x="450" y="710" width="80" height="80" as="geometry" />
        </mxCell>
        <mxCell id="MT8bY2ywJeFq0EqXuJLi-23" value="Menu Principal" style="ellipse;whiteSpace=wrap;html=1;aspect=fixed;" parent="1" vertex="1">
          <mxGeometry x="320" y="710" width="80" height="80" as="geometry" />
        </mxCell>
        <mxCell id="MT8bY2ywJeFq0EqXuJLi-32" value="" style="edgeStyle=orthogonalEdgeStyle;rounded=0;orthogonalLoop=1;jettySize=auto;html=1;" parent="1" source="MT8bY2ywJeFq0EqXuJLi-25" target="MT8bY2ywJeFq0EqXuJLi-29" edge="1">
          <mxGeometry relative="1" as="geometry" />
        </mxCell>
        <mxCell id="MT8bY2ywJeFq0EqXuJLi-25" value="&quot;Seu cartão foi adicionado com sucesso.&amp;nbsp;&lt;br&gt;&lt;br&gt;Pressione ENTER para adicionar mais um cartão&lt;br&gt;&lt;br&gt;Pressione ESC para voltar ao Menu Principal&quot;" style="shape=document;whiteSpace=wrap;html=1;boundedLbl=1;" parent="1" vertex="1">
          <mxGeometry x="535" y="820" width="190" height="180" as="geometry" />
        </mxCell>
        <mxCell id="MT8bY2ywJeFq0EqXuJLi-28" value="" style="edgeStyle=orthogonalEdgeStyle;rounded=0;orthogonalLoop=1;jettySize=auto;html=1;" parent="1" source="MT8bY2ywJeFq0EqXuJLi-26" target="MT8bY2ywJeFq0EqXuJLi-25" edge="1">
          <mxGeometry relative="1" as="geometry" />
        </mxCell>
        <mxCell id="MT8bY2ywJeFq0EqXuJLi-26" value="Cartão é adicionado no banco de dados com ID, Nome e categoria A Fazer" style="whiteSpace=wrap;html=1;" parent="1" vertex="1">
          <mxGeometry x="570" y="715" width="120" height="70" as="geometry" />
        </mxCell>
        <mxCell id="MT8bY2ywJeFq0EqXuJLi-29" value="" style="verticalLabelPosition=bottom;verticalAlign=top;html=1;shape=card;whiteSpace=wrap;size=20;arcSize=12;" parent="1" vertex="1">
          <mxGeometry x="580" y="1040" width="100" height="60" as="geometry" />
        </mxCell>
        <mxCell id="MT8bY2ywJeFq0EqXuJLi-38" value="" style="edgeStyle=orthogonalEdgeStyle;rounded=0;orthogonalLoop=1;jettySize=auto;html=1;exitX=0.5;exitY=1;exitDx=0;exitDy=0;exitPerimeter=0;" parent="1" source="MT8bY2ywJeFq0EqXuJLi-29" target="MT8bY2ywJeFq0EqXuJLi-33" edge="1">
          <mxGeometry relative="1" as="geometry" />
        </mxCell>
        <mxCell id="MT8bY2ywJeFq0EqXuJLi-30" value="Entrada do usuário" style="text;html=1;align=center;verticalAlign=middle;resizable=0;points=[];autosize=1;strokeColor=none;fillColor=none;" parent="1" vertex="1">
          <mxGeometry x="570" y="1055" width="120" height="30" as="geometry" />
        </mxCell>
        <mxCell id="MT8bY2ywJeFq0EqXuJLi-35" value="" style="edgeStyle=orthogonalEdgeStyle;rounded=0;orthogonalLoop=1;jettySize=auto;html=1;" parent="1" source="MT8bY2ywJeFq0EqXuJLi-33" target="MT8bY2ywJeFq0EqXuJLi-34" edge="1">
          <mxGeometry relative="1" as="geometry" />
        </mxCell>
        <mxCell id="MT8bY2ywJeFq0EqXuJLi-37" value="" style="edgeStyle=orthogonalEdgeStyle;rounded=0;orthogonalLoop=1;jettySize=auto;html=1;" parent="1" source="MT8bY2ywJeFq0EqXuJLi-33" target="MT8bY2ywJeFq0EqXuJLi-36" edge="1">
          <mxGeometry relative="1" as="geometry" />
        </mxCell>
        <mxCell id="MT8bY2ywJeFq0EqXuJLi-33" value="Entrada é a tecla ENTER?" style="rhombus;whiteSpace=wrap;html=1;" parent="1" vertex="1">
          <mxGeometry x="590" y="1140" width="80" height="80" as="geometry" />
        </mxCell>
        <mxCell id="MT8bY2ywJeFq0EqXuJLi-34" value="Adicionar Cartão" style="ellipse;whiteSpace=wrap;html=1;" parent="1" vertex="1">
          <mxGeometry x="710" y="1140" width="80" height="80" as="geometry" />
        </mxCell>
        <mxCell id="MT8bY2ywJeFq0EqXuJLi-36" value="Menu Principal" style="ellipse;whiteSpace=wrap;html=1;aspect=fixed;" parent="1" vertex="1">
          <mxGeometry x="480" y="1140" width="80" height="80" as="geometry" />
        </mxCell>
        <mxCell id="MT8bY2ywJeFq0EqXuJLi-39" value="V" style="text;html=1;align=center;verticalAlign=middle;resizable=0;points=[];autosize=1;strokeColor=none;fillColor=none;" parent="1" vertex="1">
          <mxGeometry x="675" y="1148" width="30" height="30" as="geometry" />
        </mxCell>
        <mxCell id="MT8bY2ywJeFq0EqXuJLi-40" value="F" style="text;html=1;align=center;verticalAlign=middle;resizable=0;points=[];autosize=1;strokeColor=none;fillColor=none;" parent="1" vertex="1">
          <mxGeometry x="565" y="1148" width="30" height="30" as="geometry" />
        </mxCell>
        <mxCell id="MT8bY2ywJeFq0EqXuJLi-41" value="F" style="text;html=1;align=center;verticalAlign=middle;resizable=0;points=[];autosize=1;strokeColor=none;fillColor=none;" parent="1" vertex="1">
          <mxGeometry x="425" y="718" width="30" height="30" as="geometry" />
        </mxCell>
        <mxCell id="MT8bY2ywJeFq0EqXuJLi-42" value="V" style="text;html=1;align=center;verticalAlign=middle;resizable=0;points=[];autosize=1;strokeColor=none;fillColor=none;" parent="1" vertex="1">
          <mxGeometry x="525" y="718" width="30" height="30" as="geometry" />
        </mxCell>
        <mxCell id="MT8bY2ywJeFq0EqXuJLi-43" value="V" style="text;html=1;align=center;verticalAlign=middle;resizable=0;points=[];autosize=1;strokeColor=none;fillColor=none;" parent="1" vertex="1">
          <mxGeometry x="445" y="578" width="30" height="30" as="geometry" />
        </mxCell>
        <mxCell id="MT8bY2ywJeFq0EqXuJLi-44" value="F" style="text;html=1;align=center;verticalAlign=middle;resizable=0;points=[];autosize=1;strokeColor=none;fillColor=none;" parent="1" vertex="1">
          <mxGeometry x="345" y="578" width="30" height="30" as="geometry" />
        </mxCell>
        <mxCell id="MT8bY2ywJeFq0EqXuJLi-45" value="V" style="text;html=1;align=center;verticalAlign=middle;resizable=0;points=[];autosize=1;strokeColor=none;fillColor=none;" parent="1" vertex="1">
          <mxGeometry x="370" y="420" width="30" height="30" as="geometry" />
        </mxCell>
      </root>
    </mxGraphModel>
  </diagram>
</mxfile>
